/* XPM */
static char * TSdpoPvCamera_xpm[] = {
"23 23 6 1",
" 	c None",
".	c #000080",
"+	c #D70000",
"@	c #000000",
"#	c #949194",
"$	c #E6E7E6",
"                       ",
"                       ",
" ...    .              ",
" .      .              ",
" ..   ... ...   ..     ",
"   . .  . .  . .  .    ",
"   . .  . .  . .  .    ",
" ..   ... ...   ..     ",
"       +++.++   +++++++",
"       +++. +   +   ++ ",
"       +++  ++ ++   ++ ",
"      ++ ++ ++ ++   ++ ",
"      ++@++@@+@+@#  ++ ",
" @@@  +++++##+++#@  ++ ",
" @@@@++$$$++$+++$@  ++ ",
" @@@@@@$$$$$$$$$$@@@@@ ",
" @@@@@@$$$$$$$$$$@@@@@ ",
" @@@@@@$$@@@@@@@@@     ",
" @@@  @$$$$$$$$$$@     ",
"      @$#########@     ",
"      #@@@@@@@@@@#     ",
"                       ",
"                       "};
