/* XPM */
static char * TSdpoVideo4L2_xpm[] = {
"23 23 6 1",
" 	c None",
".	c #000080",
"+	c #000000",
"@	c #FF0000",
"#	c #4C4C4C",
"$	c #999999",
"                       ",
"                       ",
" ...    .              ",
" .      .              ",
" ..   ... ...   ..     ",
"   . .  . .  . .  .    ",
"   . .  . .  . .  .    ",
" ..   ... ...   ..     ",
"          .            ",
"          .            ",
"                       ",
"                       ",
"                       ",
"  +++++++++++++++++++  ",
" +++++++++++++++++++++ ",
" +++@@++++##++##++++++ ",
" +++@@$+++##$+##$+++++ ",
" +++$$++++$$++$$++++++ ",
"  +++++++++++++++++++  ",
"                       ",
"                       ",
"                       ",
"                       "};
