/* XPM */
static char * TSdpoZMQ_xpm[] = {
"23 23 3 1",
" 	c None",
".	c #000080",
"+	c #FF0000",
"                       ",
"                       ",
" ...    .              ",
" .      .              ",
" ..   ... ...   ..     ",
"   . .  . .  . .  .    ",
"   . .  . .  . .  .    ",
" ..   ... ...   ..     ",
"          .            ",
"          .            ",
"                       ",
"   ++ + +     +   ++   ",
"  +  +  ++   ++  +  +  ",
" +  + + + + + + +    + ",
" + +  + +  +  + +  + + ",
"  +  +  +     +  +  +  ",
" + ++   +     +   ++ + ",
"                       ",
"                       ",
"                       ",
"                       ",
"                       ",
"                       "};
