/* XPM */
static char * TSdpoVideo4l2_xpm[] = {
"23 23 6 1",
" 	c None",
".	c #000080",
"+	c #918719",
"@	c #949194",
"#	c #000000",
"$	c #E6E7E6",
"                       ",
"                       ",
" ...    .              ",
" .      .              ",
" ..   ... ...   ..     ",
"   . .  . .  . .  .    ",
"   . .  . .  . .  .    ",
" ..   ... ...   ..     ",
"          .       ++++ ",
"          .       +  + ",
"                     + ",
"                    +  ",
"      @##########@++   ",
" ###  #$@@@@@@@@@#++++ ",
" ######$$$$$$$$$$#     ",
" ######$$$$$$$$$$##### ",
" ######$$$$$$$$$$##### ",
" ######$$#########     ",
" ###  #$$$$$$$$$$#     ",
"      #$@@@@@@@@@#     ",
"      @##########@     ",
"                       ",
"                       "};
